<?xml version="1.0" encoding="utf-8"?><svg xml:space="preserve" viewBox="0 0 100 100" y="0" x="0" xmlns="http://www.w3.org/2000/svg" id="Layer_1" version="1.1" width="200px" height="200px" xmlns:xlink="http://www.w3.org/1999/xlink" style="width:100%;height:100%;background-size:initial;background-repeat-y:initial;background-repeat-x:initial;background-position-y:initial;background-position-x:initial;background-origin:initial;background-color:initial;background-clip:initial;background-attachment:initial;animation-play-state:paused" ><g class="ldl-scale" style="transform-origin:50% 50%;transform:rotate(0deg) scale(0.8, 0.8);animation-play-state:paused" ><path stroke="#333" fill="#fff" stroke-miterlimit="10" stroke-width="3.5" d="M40.781 85.833h-1.633c-.515-.16-1.041-.291-1.544-.484-1.773-.678-3.168-1.893-4.394-3.287-3.412-3.879-6.138-8.188-8-13.025-2.041-5.303-3.168-10.756-2.818-16.469.21-3.415 1.033-6.67 2.742-9.634 2.438-4.229 6.017-7.032 10.811-8.178 1.942-.464 3.917-.664 5.86-.093 1.94.571 3.841 1.273 5.757 1.927 1.339.457 2.675 1.007 4.12.53 1.254-.414 2.49-.88 3.726-1.347 2.78-1.05 5.579-1.866 8.625-1.554 3.941.404 7.401 1.795 10.22 4.619.627.628 1.155 1.356 1.745 2.058-1.588 1.065-2.909 2.236-4.037 3.623-2.82 3.467-3.797 7.418-3.122 11.807.406 2.638 1.457 4.988 3.171 7.038 1.462 1.749 3.234 3.101 5.279 4.097.324.158.477.305.315.699-.503 1.22-.907 2.483-1.459 3.68a41.367 41.367 0 0 1-7.172 10.755c-1.099 1.193-2.39 2.159-3.953 2.698-2.306.795-4.532.407-6.736-.438-1.348-.516-2.69-1.078-4.078-1.455-2.582-.702-5.133-.388-7.624.522-1.46.533-2.913 1.085-4.381 1.597-.455.159-.946.213-1.42.314z" style="stroke:rgb(233, 246, 251);fill:rgb(233, 246, 251);animation-play-state:paused" ></path>
<path stroke="#333" fill="#fff" stroke-miterlimit="10" stroke-width="3.5" d="M65.885 10.167c-.013 1.29.131 2.605-.068 3.865-.717 4.548-2.856 8.348-6.445 11.25-2.706 2.188-5.767 3.498-9.395 3.268-.183-1.365-.162-2.725.13-4.052 1.066-4.847 3.629-8.715 7.774-11.466 2.145-1.424 4.498-2.399 7.076-2.757.1-.014.194-.072.29-.109l.638.001z" style="stroke:rgb(233, 246, 251);fill:rgb(233, 246, 251);animation-play-state:paused" ></path>
<metadata xmlns:d="https://loading.io/stock/" style="animation-play-state:paused" ><d:name style="animation-play-state:paused" >ios</d:name>


<d:tags style="animation-play-state:paused" >ios,mobile,app,developer,programmer,code,phone,device,apple,swift,object c</d:tags>


<d:license style="animation-play-state:paused" >by</d:license>


<d:slug style="animation-play-state:paused" >2kwt4w</d:slug></metadata></g><!-- generated by https://loading.io/ --></svg>